<svg width="822" height="212" viewBox="0 0 822 212" fill="none" xmlns="http://www.w3.org/2000/svg">
<path d="M168 0V151.081H121.426L121.426 49.8106L168 0Z" fill="#D9D9D9"/>
<path d="M168 0V151.081H121.426L121.426 49.8106L168 0Z" fill="#EA1330"/>
<path d="M103.129 60.1076V211.189H58.2179L58.2178 109.918L103.129 60.1076Z" fill="#D9D9D9"/>
<path d="M103.129 60.1076V211.189H58.2179L58.2178 109.918L103.129 60.1076Z" fill="#EA1330"/>
<path d="M44.9109 110.468H0V160.828L44.9109 110.468Z" fill="#D9D9D9"/>
<path d="M44.9109 110.468H0V160.828L44.9109 110.468Z" fill="#EA1330"/>
<path d="M756.462 127.232H770.552C770.83 129.545 771.908 131.654 773.787 133.559C775.735 135.395 778.275 136.858 781.406 137.946C784.537 138.967 788.051 139.477 791.947 139.477C795.496 139.477 798.418 139.103 800.714 138.355C803.01 137.606 804.715 136.552 805.828 135.191C806.941 133.831 807.498 132.198 807.498 130.293C807.498 128.456 806.802 127.062 805.411 126.109C804.019 125.089 801.827 124.273 798.835 123.66C795.843 122.98 791.912 122.3 787.042 121.62C783.215 121.075 779.597 120.327 776.188 119.375C772.778 118.354 769.752 117.062 767.108 115.497C764.533 113.932 762.481 112.028 760.95 109.783C759.489 107.47 758.758 104.748 758.758 101.619C758.758 97.7415 759.871 94.3401 762.098 91.4148C764.394 88.4896 767.769 86.2106 772.222 84.5779C776.675 82.9453 782.137 82.1289 788.607 82.1289C798.348 82.1289 805.828 84.1698 811.046 88.2515C816.334 92.2652 818.909 97.8095 818.77 104.885H805.202C804.923 100.871 803.184 97.9796 799.983 96.2109C796.852 94.4421 792.886 93.5577 788.085 93.5577C783.632 93.5577 779.945 94.204 777.023 95.4965C774.17 96.7891 772.743 99 772.743 102.129C772.743 103.354 773.091 104.442 773.787 105.395C774.483 106.279 775.666 107.061 777.336 107.742C779.005 108.422 781.267 109.068 784.119 109.681C786.972 110.293 790.521 110.905 794.765 111.517C798.731 112.062 802.314 112.81 805.515 113.762C808.785 114.647 811.568 115.837 813.864 117.334C816.23 118.762 818.039 120.599 819.291 122.844C820.544 125.089 821.17 127.844 821.17 131.11C821.17 135.123 820.092 138.627 817.935 141.62C815.847 144.545 812.577 146.824 808.124 148.457C803.741 150.09 798.035 150.906 791.008 150.906C785.998 150.906 781.58 150.396 777.753 149.375C773.926 148.287 770.621 146.858 767.838 145.089C765.055 143.321 762.794 141.382 761.054 139.273C759.315 137.164 758.062 135.055 757.297 132.946C756.601 130.837 756.323 128.933 756.462 127.232Z" fill="white"/>
<path d="M704.607 83.4556V138.151H749.485V149.477H690.726V83.4556H704.607Z" fill="white"/>
<path d="M658.871 83.4556H672.752V149.477H658.871V83.4556Z" fill="white"/>
<path d="M575.619 83.4556H646.798V94.7823H575.619V83.4556ZM604.32 93.3537H618.201V149.477H604.32V93.3537Z" fill="white"/>
<path d="M551.629 120.293V83.4556H565.51V121.722C565.51 126.076 564.849 129.885 563.527 133.151C562.275 136.416 560.466 139.171 558.1 141.416C555.734 143.661 552.951 145.498 549.751 146.926C546.62 148.287 543.175 149.273 539.418 149.886C535.731 150.498 531.834 150.804 527.729 150.804C523.485 150.804 519.449 150.498 515.622 149.886C511.796 149.273 508.282 148.287 505.081 146.926C501.95 145.498 499.237 143.661 496.941 141.416C494.644 139.171 492.835 136.416 491.513 133.151C490.261 129.885 489.635 126.076 489.635 121.722V83.4556H503.516V120.293C503.516 125.463 504.559 129.409 506.647 132.13C508.734 134.783 511.587 136.62 515.205 137.64C518.893 138.593 523.067 139.069 527.729 139.069C532.252 139.069 536.287 138.593 539.836 137.64C543.454 136.62 546.306 134.783 548.394 132.13C550.551 129.409 551.629 125.463 551.629 120.293Z" fill="white"/>
<path d="M423.303 121.926V138.151H475.383V149.477H409.422V83.4556H475.278V94.7823H423.303V111.211H465.885V121.926H423.303Z" fill="white"/>
<path d="M323.197 149.477V83.4556H369.014C374.232 83.4556 378.755 84.1699 382.582 85.5985C386.478 86.959 389.505 89.136 391.662 92.1292C393.819 95.0545 394.897 98.8301 394.897 103.456C394.897 106.585 394.341 109.238 393.227 111.415C392.114 113.592 390.549 115.361 388.531 116.722C386.583 118.082 384.321 119.137 381.747 119.885C379.172 120.565 376.424 121.007 373.502 121.212L372.041 120.395C376.911 120.463 380.912 120.871 384.043 121.62C387.174 122.3 389.505 123.593 391.036 125.497C392.636 127.334 393.436 130.089 393.436 133.763V149.477H379.555V134.681C379.555 132.164 379.103 130.225 378.198 128.865C377.294 127.436 375.659 126.45 373.293 125.905C370.997 125.361 367.657 125.089 363.274 125.089H337.077V149.477H323.197ZM337.077 114.477H369.014C372.91 114.477 375.867 113.558 377.885 111.721C379.973 109.885 381.016 107.402 381.016 104.272C381.016 101.279 379.973 99.0001 377.885 97.4355C375.867 95.8708 372.91 95.0885 369.014 95.0885H337.077V114.477Z" fill="white"/>
<path d="M291.342 83.4556H305.222V149.477H291.342V83.4556Z" fill="white"/>
<path d="M277.856 83.4556V94.7823H225.881V112.538H268.463V123.15H225.881V149.477H212V83.4556H277.856Z" fill="white"/>
</svg>
